HIERARCHY
ROOT Hips
{
	OFFSET 0.0000 0.0000 0.0000
	CHANNELS 6 Xposition Yposition Zposition Zrotation Xrotation Yrotation
	JOINT Spine1
	{
		OFFSET -0.0137 5.0038 -0.0537
		CHANNELS 3 Zrotation Xrotation Yrotation
		JOINT Spine2
		{
			OFFSET -0.0000 7.1253 -0.0298
			CHANNELS 3 Zrotation Xrotation Yrotation
			JOINT Chest
			{
				OFFSET -0.0000 7.5501 -0.8160
				CHANNELS 3 Zrotation Xrotation Yrotation
				JOINT Neck1
				{
					OFFSET -0.1817 26.3113 -0.5533
					CHANNELS 3 Zrotation Xrotation Yrotation
					JOINT Neck2
					{
						OFFSET -0.0000 7.7094 2.3026
						CHANNELS 3 Zrotation Xrotation Yrotation
						JOINT Head
						{
							OFFSET -0.0000 6.1289 1.9537
							CHANNELS 3 Zrotation Xrotation Yrotation
							JOINT Jaw
							{
								OFFSET 0.0026 0.4756 3.0949
								CHANNELS 3 Zrotation Xrotation Yrotation
								End Site
								{
									OFFSET 0.0 1.0 0.0
								}
							}
							JOINT LeftEye
							{
								OFFSET 3.2064 5.3802 7.5869
								CHANNELS 3 Zrotation Xrotation Yrotation
								End Site
								{
									OFFSET 0.0 1.0 0.0
								}
							}
							JOINT RightEye
							{
								OFFSET -3.2224 5.3619 7.5582
								CHANNELS 3 Zrotation Xrotation Yrotation
								End Site
								{
									OFFSET 0.0 1.0 0.0
								}
							}
						}
					}
				}
				JOINT LeftShoulder
				{
					OFFSET 1.6217 23.2372 5.1134
					CHANNELS 3 Zrotation Xrotation Yrotation
					JOINT LeftArm
					{
						OFFSET 14.9198 0.0000 -5.5023
						CHANNELS 3 Zrotation Xrotation Yrotation
						JOINT LeftForeArm
						{
							OFFSET 28.7393 0.0000 -0.0026
							CHANNELS 3 Zrotation Xrotation Yrotation
							JOINT LeftHand
							{
								OFFSET 27.0940 -0.0000 0.0026
								CHANNELS 3 Zrotation Xrotation Yrotation
								JOINT LeftHandThumbEnd
								{
									OFFSET 12.2686 -3.2202 4.8331
									CHANNELS 3 Zrotation Xrotation Yrotation
									End Site
									{
										OFFSET 0.0 1.0 0.0
									}
								}
								JOINT LeftHandMiddleEnd
								{
									OFFSET 19.0120 -0.3129 -0.0340
									CHANNELS 3 Zrotation Xrotation Yrotation
									End Site
									{
										OFFSET 0.0 1.0 0.0
									}
								}
							}
						}
					}
				}
				JOINT RightShoulder
				{
					OFFSET -1.3801 23.1803 5.2142
					CHANNELS 3 Zrotation Xrotation Yrotation
					JOINT RightArm
					{
						OFFSET -15.0372 0.0000 -5.5456
						CHANNELS 3 Zrotation Xrotation Yrotation
						JOINT RightForeArm
						{
							OFFSET -28.7366 0.0000 -0.0026
							CHANNELS 3 Zrotation Xrotation Yrotation
							JOINT RightHand
							{
								OFFSET -27.1336 -0.0000 0.0026
								CHANNELS 3 Zrotation Xrotation Yrotation
								JOINT RightHandThumbEnd
								{
									OFFSET -12.2642 -3.2115 4.8040
									CHANNELS 3 Zrotation Xrotation Yrotation
									End Site
									{
										OFFSET 0.0 1.0 0.0
									}
								}
								JOINT RightHandMiddleEnd
								{
									OFFSET -19.0006 -0.3066 -0.0316
									CHANNELS 3 Zrotation Xrotation Yrotation
									End Site
									{
										OFFSET 0.0 1.0 0.0
									}
								}
							}
						}
					}
				}
			}
		}
	}
	JOINT LeftLeg
	{
		OFFSET 10.0432 -8.4345 2.5957
		CHANNELS 3 Zrotation Xrotation Yrotation
		JOINT LeftShin
		{
			OFFSET -0.0000 -43.2218 -0.8029
			CHANNELS 3 Zrotation Xrotation Yrotation
			JOINT LeftFoot
			{
				OFFSET 0.0000 -42.1551 -3.4815
				CHANNELS 3 Zrotation Xrotation Yrotation
				JOINT LeftToeBase
				{
					OFFSET 0.0000 -5.0595 13.2315
					CHANNELS 3 Zrotation Xrotation Yrotation
					End Site
					{
						OFFSET 0.0 1.0 0.0
					}
				}
			}
		}
	}
	JOINT RightLeg
	{
		OFFSET -10.0473 -8.2953 2.6203
		CHANNELS 3 Zrotation Xrotation Yrotation
		JOINT RightShin
		{
			OFFSET 0.0000 -43.3622 -0.8056
			CHANNELS 3 Zrotation Xrotation Yrotation
			JOINT RightFoot
			{
				OFFSET 0.0000 -42.1174 -3.4784
				CHANNELS 3 Zrotation Xrotation Yrotation
				JOINT RightToeBase
				{
					OFFSET -0.0000 -5.0796 13.2842
					CHANNELS 3 Zrotation Xrotation Yrotation
					End Site
					{
						OFFSET 0.0 1.0 0.0
					}
				}
			}
		}
	}
}
MOTION
Frames: 6
Frame Time: 0.033333
-4.0169 98.1056 16.4017 -2.0561 8.0919 -26.7409 -0.1021 -3.3361 -0.9123 -0.6061 -6.3368 -2.4070 2.0451 6.3271 -4.0180 -10.4358 -1.7262 6.0865 -1.4993 -3.8313 -0.6108 -7.5099 -13.6320 3.5518 -0.0893 0.0561 -0.0747 0.8100 -10.8041 -3.9631 -1.0134 -10.7516 3.8275 8.3392 9.7777 -7.5691 38.7683 -56.6141 -6.0505 5.0427 2.4247 -97.8715 16.5401 -22.4980 14.0335 -16.2732 10.6461 15.2295 -60.4268 1.5983 1.9397 -2.8017 10.2592 2.9201 18.0057 -2.9482 26.9791 -1.0428 2.4609 119.4413 -17.7494 7.3934 -4.2062 14.5264 7.8929 -16.1415 50.3229 -3.6285 -5.1329 20.9143 4.8651 14.9165 0.0285 12.0935 -0.9133 -31.7650 20.7851 10.4806 2.6584 -31.7097 -3.2755 -6.7329 -26.6081 -8.3812 0.3652 18.0037 0.5296 12.0742 1.1890 10.4038 -1.3803 -4.9033 0.7392
-3.8997 98.3732 16.3294 -1.2647 9.2132 -26.2589 -0.0605 -2.8290 -1.0205 -0.5512 -6.1698 -2.4920 2.1138 6.5327 -4.2311 -11.5165 -0.3581 6.2871 -1.8106 -3.8323 -1.3680 -8.9103 -14.6863 3.0155 -0.0871 0.0618 -0.0150 0.7918 -10.7700 -3.8824 -0.9927 -10.6968 3.8622 8.9294 9.7939 -7.2477 39.0760 -59.8811 -6.7922 5.3893 2.0585 -101.4385 19.0986 -23.4391 11.5459 -16.9020 10.6478 15.0683 -60.8819 1.5154 1.8192 -2.7821 10.3571 2.1473 21.1689 -3.8317 22.9488 -0.7375 1.7471 122.8026 -19.6801 6.8988 -1.9798 14.7090 7.7232 -16.0652 50.3979 -3.6853 -5.1268 19.8582 3.5585 14.6803 0.0220 12.0655 -0.9026 -31.5760 21.6591 9.9408 2.6625 -31.2851 -3.2740 -7.5375 -27.5025 -8.1472 0.3523 17.2351 0.5035 12.2832 1.6424 10.1279 -1.3774 -4.6677 0.7386
-3.6928 98.5114 16.2548 -0.3440 10.0620 -26.0697 0.0695 -2.4221 -1.0424 -0.4856 -6.0059 -2.4530 2.1289 6.7916 -4.3478 -12.7291 1.5929 6.4794 -2.0935 -3.8293 -2.2333 -10.0966 -14.9189 2.3137 -0.0909 0.0719 0.0472 0.7583 -10.6930 -3.7879 -0.9689 -10.5964 3.8890 8.9393 9.7009 -6.7876 38.1621 -63.1049 -7.2113 5.5911 1.9438 -104.8943 21.7610 -24.2044 8.6393 -17.4622 10.6753 15.0617 -61.3184 1.3960 1.7151 -3.0689 10.4179 1.7752 24.6771 -4.1607 20.0203 -0.4770 1.1038 125.7934 -21.1200 6.6375 0.1444 14.9460 7.6703 -16.0173 50.7211 -3.6782 -5.1793 18.6070 2.6523 14.6313 0.0475 12.1298 -0.8894 -31.4042 22.1512 9.6233 2.6840 -30.6705 -3.3040 -8.5772 -28.3917 -7.8381 0.3795 16.7701 0.5416 12.4869 1.8950 9.9769 -1.3735 -4.4334 0.7173
-3.4595 98.5296 16.1853 0.5463 10.5662 -26.2098 0.2697 -2.1617 -0.9495 -0.4056 -5.8526 -2.3751 2.1122 7.0992 -4.4428 -13.7778 4.0083 6.6386 -2.3343 -3.8253 -3.0904 -11.0349 -14.2493 1.5311 -0.0998 0.0759 0.0946 0.7244 -10.5856 -3.6952 -0.9534 -10.4738 3.8952 8.4257 9.6555 -6.3624 35.2753 -65.6110 -6.0671 5.6804 2.1278 -107.5597 23.5551 -24.4788 6.8547 -17.8367 10.7338 15.1010 -61.6281 1.3259 1.5866 -3.5998 10.3634 1.6638 28.0117 -4.0983 19.0655 -0.2242 0.7447 127.9893 -22.0079 6.8246 1.6630 15.1531 7.6843 -16.0185 51.0528 -3.6577 -5.2871 17.3932 2.2687 14.9694 0.0637 12.0799 -0.8491 -31.0380 22.2953 9.6514 2.7136 -30.0890 -3.3501 -9.6905 -29.1954 -7.3712 0.4251 16.6792 0.6126 12.6593 2.0020 9.9655 -1.3671 -4.3551 0.6773
-3.1951 98.4499 16.1165 1.2285 10.7527 -26.5925 0.5458 -2.0105 -0.8050 -0.3050 -5.7644 -2.3429 2.1221 7.4534 -4.4715 -14.3085 6.6825 6.7326 -2.5864 -3.8063 -3.7969 -11.6610 -12.7141 0.6697 -0.1050 0.0687 0.1152 0.7037 -10.4931 -3.6298 -0.9449 -10.3702 3.8712 7.6503 9.6875 -6.0606 30.0234 -67.0391 -2.7362 5.6632 2.5009 -109.0605 24.3733 -24.5719 6.6234 -17.8344 10.8774 15.2054 -61.6966 1.3739 1.4637 -4.2423 10.1695 1.7353 31.0266 -3.9290 20.0837 -0.0075 0.5905 129.3982 -22.5397 6.9141 2.7406 15.2658 7.6860 -16.0507 51.3023 -3.6326 -5.3924 16.3934 2.2554 15.6501 0.0751 12.0090 -0.7888 -30.3993 21.9954 10.0903 2.7306 -29.6464 -3.3798 -10.6664 -29.8581 -6.7529 0.4722 16.9518 0.6911 12.7884 1.8910 9.9639 -1.3643 -4.3462 0.6632
-2.9763 98.3102 16.0476 1.6566 10.6652 -27.0352 0.8153 -1.9695 -0.6850 -0.2111 -5.6878 -2.3283 2.2362 7.7529 -4.5261 -14.1998 9.3656 6.7766 -2.7903 -3.7720 -4.3156 -11.9843 -10.5110 -0.1679 -0.1040 0.0528 0.1143 0.6976 -10.4035 -3.5921 -0.9342 -10.2767 3.8311 6.8079 9.7270 -5.8738 23.8089 -67.4130 1.4191 5.4198 3.0052 -109.4435 24.4536 -24.8872 7.6263 -17.5842 10.9790 15.3105 -61.5250 1.4929 1.4004 -4.7874 9.8649 1.8653 33.7014 -3.8824 22.6476 0.2264 0.5706 130.0786 -22.9721 6.7942 3.6357 15.2829 7.6859 -16.1356 51.4293 -3.5944 -5.5111 15.7748 2.4342 16.3977 0.0764 12.0579 -0.7331 -29.7425 21.4367 10.6501 2.7262 -29.3680 -3.3799 -11.3988 -30.2205 -6.1212 0.5166 17.3524 0.7721 12.8535 1.6692 9.9248 -1.3635 -4.2983 0.6560
